<svg xmlns="http://www.w3.org/2000/svg" viewBox="-37.663545 -7.971925 326.41739 47.83155"><g fill="#10427a"><path d="M0 11.5508v6.4777h13.5351v13.5332h6.48V11.5491L0 11.5508"/><path d="M31.5618 0L0 .0055V6.483h25.0851v25.0787h6.4767V0M0 31.5617h8.424V23.136H0zm49.7812-1.9547h8.8614l1.1077-5.6366h1.7918v7.5913H43.4605V30.161l3.0624-.6842V10.1893l-3.0624-.6842V8.1042h9.7088v1.401l-3.3881.6841V29.607m24.3695-9.155c.6078 0 1.178-.092 1.7103-.277.532-.1844.9504-.4285 1.2545-.7331.4342-.4561.8032-1.0532 1.108-1.7919.3038-.738.4562-1.531.4562-2.3782 0-.8252-.1471-1.58-.4403-2.2644-.2932-.684-.6678-1.2975-1.124-1.8406-.3697-.3692-.8198-.6567-1.3518-.8634-.5327-.2061-1.1134-.3095-1.7434-.3095h-3.9095V20.452zm-4.04 1.8896v7.1352l3.0953.6842v1.4007h-9.09V30.161l2.7368-.6842V10.1893l-2.7369-.6842V8.1042h10.7845c1.0202 0 1.9487.136 2.7851.4072.8358.272 1.5367.6572 2.1015 1.1568.76.6952 1.3628 1.5097 1.808 2.4434.4452.9341.6682 1.9222.6682 2.9647 0 1.0864-.2335 2.1339-.7006 3.144-.4675 1.01-1.0806 1.852-1.8405 2.5248-.5651.5-1.2707.8909-2.1177 1.1731-.8474.2825-1.7596.4234-2.7368.4234h-4.7569m19.5481 7.2654h8.8614l1.1078-5.6366h1.7917v7.5913H83.3381V30.161l3.0625-.6842V10.1893l-3.0625-.6842V8.1042h9.7088v1.401l-3.388.6841V29.607m33.9477-5.441l-.5535-3.3229h-5.4409v8.5358l3.8118.619v1.5638h-10.1325V30.161l3.0628-.782V10.1892l-3.0628-.6842V8.1042h18.3427v6.972h-1.7593l-1.0425-5.0823h-9.2202v8.8943h5.441l.5534-3.3233h1.6616v8.6012h-1.6616m9.5779-15.4427c0-.6298.1793-1.1292.538-1.4989.3581-.3689.852-.5537 1.4824-.5537.6294 0 1.1289.1848 1.4986.5537.369.3697.5535.8691.5535 1.4989 0 .63-.1845 1.1239-.5535 1.4822-.3697.3584-.8692.5376-1.4986.5376-.6304 0-1.1243-.1792-1.4824-.5376-.3587-.3583-.538-.8522-.538-1.4822zm-2.0524 6.581v-1.3358h5.6688V29.607l2.509.619v1.3357h-8.1778V30.226l2.5086-.619V15.9234l-2.5086-.619m12.6735.619l-2.5086-.619v-1.3358h4.6913l.7172 3.2581h.1301c.6516-1.1078 1.5258-1.9818 2.6226-2.6228 1.0968-.6404 2.286-.9612 3.5676-.9612.8686 0 1.6503.1523 2.3456.4563.695.3044 1.2489.7384 1.6616 1.3032.4343.6082.7437 1.461.9285 2.5576.1842 1.097.277 2.5793.277 4.447v7.2002l2.5086.619v1.3357h-7.8518V30.226l2.183-.619v-7.2654c0-1.3898-.0381-2.4378-.114-3.144-.0765-.7056-.212-1.2543-.4074-1.6454-.5433-1.0639-1.4986-1.5962-2.867-1.5962-.6082 0-1.1946.109-1.7593.326-.5648.2171-1.0644.5102-1.4986.8795-.4777.4348-.8305.9396-1.0587 1.5149-.228.5756-.3641 1.3195-.4075 2.2317v8.6989l2.183.619v1.3357h-7.8518V30.226l2.5086-.619V15.9234m24.1741 14.0746c.6082 0 1.2436-.1574 1.9064-.4727.6622-.3145 1.2213-.754 1.6775-1.3193.673-.8252 1.01-2.0414 1.01-3.6488 0-.3693-.011-.7331-.0325-1.0914a14.6342 14.6342 0 00-.0977-1.0264c-1.325.2605-2.427.5324-3.307.8144-.8797.2825-1.5857.6027-2.1173.9614-.5327.3581-.9077.7708-1.1243 1.2377-.2173.4674-.326 1.005-.326 1.613 0 .934.212 1.6564.6354 2.1663.4237.5105 1.0153.7657 1.7755.7657zm-5.7661-2.2483c0-.8468.1898-1.596.57-2.2479.3796-.6515.9822-1.2324 1.808-1.743.8252-.51 1.8895-.9497 3.193-1.3194 1.3032-.3692 2.867-.6948 4.6913-.9773-.1087-1.2816-.2336-2.2807-.3747-2.9975-.1414-.7167-.3316-1.292-.57-1.7268-.3045-.5645-.7282-.9823-1.2708-1.2542-.5432-.2714-1.1296-.4073-1.7593-.4073-.6082 0-1.1567.109-1.645.3259-.489.2173-.8202.5105-.9941.8797.304.2392.5267.5268.6682.8631.1407.3373.2116.6573.2116.9612 0 .5433-.1788.9722-.5376 1.287-.3584.315-.7983.4725-1.3194.4725-.5214 0-.9504-.1737-1.287-.5214-.3368-.3472-.5048-.836-.5048-1.466 0-.673.1842-1.2758.5539-1.8083.369-.532.852-.9773 1.4496-1.3359.5972-.3583 1.2707-.6295 2.02-.8143.7493-.1844 1.493-.2771 2.2316-.2771 1.8461 0 3.3017.5328 4.3657 1.5964 1.3469 1.3471 2.0203 3.736 2.0203 7.1676v4.7242c0 1.0863.0702 1.83.2113 2.2318.1415.402.4509.6026.929.6026h1.4657v.9774c-1.5635.6297-2.7802.945-3.6488.945-.3256 0-.5976-.0545-.8145-.163-.2174-.1088-.391-.2983-.5211-.5702-.1305-.2714-.223-.6352-.2773-1.0914-.0543-.4561-.0811-1.0314-.0811-1.7267h-.1302c-.6734 1.1076-1.5642 1.9764-2.6716 2.6063-1.1077.6297-2.3026.945-3.5842.945-1.368 0-2.443-.3636-3.2251-1.0915-.7821-.7276-1.1726-1.7432-1.1726-3.0465m19.9379-11.8263l-2.5086-.619v-1.3358h4.6916l.7168 3.2581h.1302c.652-1.1078 1.5258-1.9818 2.623-2.6228 1.0964-.6404 2.2856-.9612 3.5672-.9612.8685 0 1.6507.1523 2.3456.4563.695.3044 1.2489.7384 1.6616 1.3032.4346.6082.744 1.461.9285 2.5576.1845 1.097.277 2.5793.277 4.447v7.2002l2.509.619v1.3357h-7.8519V30.226l2.1827-.619v-7.2654c0-1.3898-.0381-2.4378-.114-3.144-.0765-.7056-.212-1.2543-.407-1.6454-.5434-1.0639-1.4987-1.5962-2.8671-1.5962a4.865 4.865 0 00-1.7597.326c-.5648.2171-1.0643.5102-1.4986.8795-.4776.4348-.8304.9396-1.0586 1.5149-.228.5756-.3641 1.3195-.4075 2.2317v8.6989l2.1833.619v1.3357h-7.852V30.226l2.5085-.619V15.9234m26.1945-2.2807c1.8898 0 3.3933.462 4.5123 1.3848 1.1184.9236 1.6779 2.1558 1.6779 3.6978 0 1.6726-.6735 2.5087-2.02 2.5087-.6305 0-1.1187-.1736-1.4662-.5213-.3475-.3472-.521-.8147-.521-1.401 0-.5427.1464-1.0098.4399-1.4008.2931-.391.689-.6626 1.1888-.8147-.63-1.1942-1.8355-1.7919-3.6163-1.7919-1.7812 0-3.079.576-3.8933 1.7267-.8145 1.1517-1.2216 2.9649-1.2216 5.4408 0 2.064.2818 3.6384.847 4.7243.8685 1.6727 2.2913 2.5087 4.2679 2.5087.9987 0 1.9547-.217 2.867-.6518.9123-.434 1.694-1.053 2.3456-1.8569l.9776.7818c-.8689 1.3469-1.8683 2.335-2.9972 2.9648-1.13.6297-2.4546.945-3.9748.945-1.5208 0-2.8402-.3098-3.9588-.9288-1.1187-.6188-1.9929-1.5255-2.6222-2.7203-.3697-.695-.6576-1.4931-.8636-2.3947-.2064-.9009-.3094-1.862-.3094-2.8832 0-1.4118.1954-2.6878.5863-3.8282.3909-1.1403.95-2.1177 1.6778-2.9322.7274-.8145 1.6073-1.4441 2.6392-1.8895 1.0311-.445 2.1773-.6681 3.437-.6681m9.8715-4.9193c0-.6298.1789-1.1292.5376-1.4989.3584-.3689.852-.5537 1.4824-.5537.6294 0 1.1289.1848 1.4986.5537.369.3697.5535.8691.5535 1.4989 0 .63-.1845 1.1239-.5535 1.4822-.3697.3584-.8692.5376-1.4986.5376-.6304 0-1.124-.1792-1.4824-.5376-.3587-.3583-.5376-.8522-.5376-1.4822zm-2.0528 6.581v-1.3358h5.6691V29.607l2.5086.619v1.3357h-8.1777V30.226l2.509-.619V15.9234l-2.509-.619m15.3451 14.6936c.6082 0 1.2435-.1574 1.9064-.4727.6622-.3145 1.2213-.754 1.6775-1.3193.673-.8252 1.01-2.0414 1.01-3.6488 0-.3693-.0113-.7331-.0325-1.0914a14.6342 14.6342 0 00-.0977-1.0264c-1.325.2605-2.4271.5324-3.307.8144-.8798.2825-1.5857.6027-2.1173.9614-.5327.3581-.9077.7708-1.1243 1.2377-.2173.4674-.326 1.005-.326 1.613 0 .934.212 1.6564.6354 2.1663.4237.5105 1.0153.7657 1.7755.7657zm-5.7661-2.2483c0-.8468.1897-1.596.57-2.2479.3796-.6515.9822-1.2324 1.808-1.743.8252-.51 1.8895-.9497 3.193-1.3194 1.3032-.3692 2.8667-.6948 4.6913-.9773-.1087-1.2816-.2336-2.2807-.3747-2.9975-.1418-.7167-.3316-1.292-.57-1.7268-.3045-.5645-.7282-.9823-1.2708-1.2542-.5433-.2714-1.1296-.4073-1.7593-.4073-.6082 0-1.1567.109-1.645.3259-.489.2173-.8206.5105-.9941.8797.304.2392.5263.5268.6681.8631.1408.3373.2117.6573.2117.9612 0 .5433-.1788.9722-.5376 1.287-.3584.315-.7984.4725-1.3194.4725-.5214 0-.9504-.1737-1.287-.5214-.3368-.3472-.5048-.836-.5048-1.466 0-.673.1842-1.2758.5539-1.8083.369-.532.852-.9773 1.4496-1.3359.5972-.3583 1.2707-.6295 2.02-.8143.7493-.1844 1.493-.2771 2.2316-.2771 1.8461 0 3.3017.5328 4.3657 1.5964 1.3469 1.3471 2.0203 3.736 2.0203 7.1676v4.7242c0 1.0863.0702 1.83.2113 2.2318.1415.402.4509.6026.9289.6026h1.4658v.9774c-1.5635.6297-2.7803.945-3.6488.945-.3256 0-.5976-.0545-.8146-.163-.2173-.1088-.3908-.2983-.521-.5702-.1305-.2714-.223-.6352-.2773-1.0914-.0543-.4561-.0811-1.0314-.0811-1.7267h-.1302c-.6735 1.1076-1.5642 1.9764-2.6716 2.6063-1.1077.6297-2.3026.945-3.5842.945-1.368 0-2.443-.3636-3.2251-1.0915-.7821-.7276-1.1726-1.7432-1.1726-3.0465m19.6779-19.6455l-2.509-.619V6.1495h5.6692V29.607l2.5086.619v1.3357h-8.1778V30.226l2.509-.619V8.1042"/></g></svg>