<?xml version="1.0" encoding="UTF-8"?>
<svg id="SVGRoot" width="500" height="256.19" version="1.1" viewBox="0 0 500 256.18903" xmlns="http://www.w3.org/2000/svg" xmlns:cc="http://creativecommons.org/ns#" xmlns:dc="http://purl.org/dc/elements/1.1/" xmlns:rdf="http://www.w3.org/1999/02/22-rdf-syntax-ns#"><metadata><rdf:RDF><cc:Work rdf:about=""><dc:format>image/svg+xml</dc:format><dc:type rdf:resource="http://purl.org/dc/dcmitype/StillImage"/><dc:title/></cc:Work></rdf:RDF></metadata><g transform="translate(-231.25 -116.29)" fill="#00a0df" stroke-width=".62516"><path class="st1" d="m712.18 225.88c0-8.9397-5.5639-15.629-10.065-22.381-4.5011-4.5011-7.8144-8.9397-7.8144-14.566 0-6.6892 4.5011-11.19 10.065-11.19 3.3758 0 5.5639 1.1253 7.8144 2.2506s5.5639 2.2506 7.8144 2.2506c4.5011 0 7.8145-4.5011 7.8145-7.8144 0-4.5011-4.5011-8.9397-12.316-8.9397-17.879 0-33.571 20.13-33.571 35.759 0 8.9397 5.5639 15.629 10.065 21.255 3.3758 4.5011 6.6892 8.9397 6.6892 13.441 0 6.6892-6.6892 11.19-12.316 11.19-6.6892 0-10.065-3.3758-14.566-6.6892-2.2506-2.2506-4.5011-4.5011-6.6892-4.5011-3.3758 0-4.5011 6.6892-4.5011 10.065 0 4.5011 7.8144 11.19 17.879 11.19 15.816-2.2506 33.696-15.691 33.696-31.32"/><path class="st1" d="m330.84 116.29c-1.1253 0-1.1253 0 0 0l-1.1253 4.5011v1.1253h5.5639c4.5011 1.1253 5.5639 1.1253 5.5639 3.3758 0 3.3758-4.5011 14.566-10.065 30.195l-4.5011 14.566c-4.5011 12.316-11.19 30.195-16.754 44.761-6.6892 17.879-12.316 32.446-12.316 34.696s1.1253 3.3758 6.6892 3.3758 7.8145-1.1253 8.9397-3.3758c10.065-32.446 36.884-69.33 50.325-69.33 4.5011 0 5.5639 1.1253 5.5639 5.5639 0 6.6892-5.5639 20.13-12.316 33.571-5.5639 11.19-10.065 22.381-10.065 27.944 0 4.5011 2.2506 6.6892 6.6892 6.6892 13.441 0 24.631-12.316 32.446-22.381l1.1253-1.1253-3.3758-3.3758h-1.1253c-4.5011 4.5011-12.316 12.316-14.566 12.316h-1.1253v-2.2506c0-1.1253 1.1253-4.5011 3.3758-8.9397 5.5639-12.316 14.566-33.571 14.566-45.824 0-10.065-4.5011-15.629-13.441-15.629-16.754 0-30.195 19.005-36.884 29.07-1.1253 2.2506-3.3758 4.5011-3.3758 4.5011s1.1253-2.2506 2.2506-6.6892c2.2506-4.5011 4.5011-11.19 7.8145-20.13 12.316-33.571 17.879-50.325 17.879-52.576s-2.2506-2.2506-3.3758-2.2506h-24.631z"/><path class="st1" d="m292.83 234.82c1.1253-1.1253 1.1253-1.1253 0 0 0-1.1253-3.3758-3.3758-3.3758-3.3758-5.5639 4.5011-15.629 13.441-24.631 13.441-3.3758 0-6.6892-1.1253-8.9397-3.3758-3.3758-2.2506-4.5011-6.6892-4.5011-12.316-1.1253-13.441 11.19-34.696 22.381-46.949 6.6892-6.6892 12.316-10.065 15.629-10.065 4.5011 0 7.8144 3.3758 11.19 6.6892 2.2506 3.3758 4.5011 5.5639 7.8145 5.5639 1.1253 0 3.3758-1.1253 3.3758-2.2506 1.1253-1.1253 2.2506-3.3758 2.2506-4.5011 0-5.5639-5.5639-13.441-17.879-14.566-13.441 0-31.32 7.8144-44.761 21.255-12.316 12.316-19.005 27.944-17.879 42.511 0 12.316 6.6892 25.694 24.631 25.694 17.879 2.3756 32.446-13.253 34.696-17.754z"/><path class="st1" d="m518.7 203.5c0 1.1253-1.1253 2.2506-1.1253 2.2506v-1.1253c0-1.1253 1.1253-4.5011 2.2506-8.9397 2.2506-8.9397 4.5011-20.13 4.5011-23.506 0-4.5011-2.2506-6.6892-6.6892-6.6892-8.9397 0-23.506 15.629-27.944 23.506l2.2506 3.3758 1.1253-1.1253 1.1253-1.1253c3.3758-4.5011 10.065-12.316 13.441-12.316 2.2506 0 3.3758 2.2506 3.3758 5.5639 0 7.8145-8.9397 32.446-14.566 49.2-3.3758 8.9397-5.5639 15.629-5.5639 16.754 0 2.2506 1.1253 2.2506 2.2506 2.2506h7.8144c1.1253 0 2.2506-1.1253 3.3758-3.3758 0 0 3.3758-8.9397 5.5639-13.441 15.629-31.32 23.506-46.949 30.195-53.701 4.5011-4.5011 7.8144-5.5639 10.065-5.5639s2.2506 1.1253 3.3758 2.2506c1.1253 1.1253 2.2506 3.3758 4.5011 3.3758 1.1253 0 3.3758 0 4.5011-1.1253 2.2506-2.2506 3.3758-4.5011 3.3758-7.8144 0-5.5639-4.5011-7.8145-7.8144-7.8145-15.879 1.1253-25.944 11.19-39.385 39.135z"/><path class="st1" d="m470.62 163.24c-1.1253 0-2.2506 1.1253-2.2506 2.2506-1.1253 1.1253-1.1253 2.2506-3.3758 2.2506-1.1253 0-2.2506 0-4.5011-1.1253-2.2506 0-4.5011-1.1253-7.8144-1.1253-39.135 0-59.265 52.576-59.265 70.455 0 12.316 6.6892 17.879 13.441 17.879 7.8145 0 19.005-2.2506 33.571-24.631l3.3758-5.5639v1.1253l-1.1253 2.2506c-2.2506 3.3758-5.5639 11.19-5.5639 17.879 0 3.3758 1.1253 5.5639 2.2506 6.6892 1.1253 1.1253 3.3758 2.2506 5.5639 2.2506 13.441 0 24.631-17.879 29.07-24.631l-3.3758-3.3758h-1.1253l-3.3758 3.3758c-4.5011 4.5011-8.9397 11.19-12.316 11.19h-1.1253v-2.2506c0-4.5011 8.9397-25.694 14.566-42.511 4.5011-12.316 8.9397-23.506 8.9397-25.694 0 0 0-2.2506-1.1253-2.2506l-5.5639-3.3758c2.2506-1.0628 1.1253-1.0628 1.1253-1.0628zm-61.515 69.33c0-25.694 20.13-60.39 40.26-60.39 6.6892 0 10.065 3.3758 10.065 10.065 0 10.065-26.819 58.14-44.761 58.14-3.3133 1.1253-5.5639 0-5.5639-7.8145z"/><path class="st1" d="m595.9 230.32c0 14.566 8.9397 24.631 22.381 24.631 15.629 0 32.446-15.629 36.884-20.13v-1.1253l-2.2506-3.3758h-1.1253l-2.2506 1.1253c-5.5639 4.5011-14.566 11.19-22.381 11.19-8.9397 0-14.566-5.5639-14.566-14.566 0-11.19 5.5639-19.005 8.9397-25.694v-1.1253h8.9397c14.566 0 41.385-6.6892 41.385-23.506 0-6.6892-6.6892-14.566-17.879-14.566-22.318 2.3131-58.077 35.884-58.077 67.142zm57.014-59.265c4.5011 0 7.8145 3.3758 7.8145 7.8144 0 11.19-12.316 16.754-33.571 16.754 3.3758-7.7519 15.691-24.569 25.756-24.569z"/><path class="st1" d="m589.15 231.44v0c0-1.1253-3.3758-4.5011-3.3758-4.5011l-1.1253 1.1253c-7.8145 7.8144-11.19 13.441-15.629 13.441h-1.1253s-1.1253-1.1253-1.1253-2.2506c0-4.5011 7.8144-26.819 23.506-67.079l11.19-29.07c5.5639-14.566 8.9397-22.381 8.9397-23.506v-1.1253c0-1.1253-1.1253-1.1253-3.3758-1.1253h-25.694s-1.1253 0-1.1253 1.1253v5.5639h5.5639c3.3758 1.1253 5.5639 2.2506 5.5639 4.5011 0 3.3758-16.754 44.761-16.754 44.761-8.9397 22.381-24.631 61.515-24.631 70.455 0 4.5011 1.1253 7.8144 2.2506 8.9397 2.2506 2.2506 4.5011 3.3758 7.8144 3.3758 10.065 0 21.255-13.441 27.944-22.381 0.0625 0 1.1878-2.2506 1.1878-2.2506z"/><path class="st1" d="m234.63 309.78c0 12.316 10.065 19.005 19.005 23.506l4.5011 2.2506c8.9397 4.5011 13.441 10.065 13.441 16.754 0 7.8144-5.5639 14.566-13.441 14.566-12.316 0-19.005-12.316-22.381-20.13l-4.5011 1.1253c1.1253 7.8144 3.3758 16.754 3.3758 20.13h2.2506l5.5639 2.2506c3.3758 1.1253 7.8144 2.2506 12.316 2.2506 16.754 0 29.07-10.065 29.07-25.694 0-14.566-11.19-21.255-19.005-24.631l-3.3758-1.1253c-10.065-5.5639-14.566-10.065-14.566-16.754s4.5011-13.441 12.316-13.441c10.065 0 14.566 7.8144 16.754 15.629l4.5011-1.1253c-1.1253-6.6892-2.2506-12.316-2.2506-16.754l-3.3758-1.1253-2.2506-1.1253c-3.3758-1.1253-7.8144-2.2506-11.19-2.2506-15.566 1.0628-26.757 11.128-26.757 25.694z"/><path class="st1" d="m293.95 329.91c0 21.255 14.566 41.385 46.949 41.385 7.8145 0 19.005-2.2506 23.506-3.3758 2.2506-5.5639 5.5639-15.629 6.6892-21.255l-4.5011-1.1253c-6.6892 13.441-12.316 20.13-26.819 20.13-17.879 0-30.195-15.629-30.195-39.135 0-16.754 7.8145-35.759 30.195-35.759 13.441 0 20.13 5.5639 23.506 19.005h4.5011l-1.1253-5.5639-2.2506-14.566h-2.2506c-4.5011-1.1253-11.19-2.2506-20.13-2.2506-27.944-2.2506-48.075 15.629-48.075 42.511z"/><path class="st1" d="m465.06 287.39h-35.759v4.5011c8.9397 1.1253 10.065 1.1253 10.065 15.629v16.754h-38.01v-16.754c0-13.441 1.1253-14.566 10.065-15.629v-4.5011h-36.884v4.5011c11.19 1.1253 11.19 2.2506 11.19 15.629v44.761c0 13.441-1.1253 14.566-11.19 15.629v4.5011h36.884v-4.5011c-8.9397-1.1253-11.19-1.1253-11.19-15.629v-21.255h38.01v21.255c0 13.441-1.1253 14.566-11.19 15.629v4.5011h36.884v-4.5011c-10.065-1.1253-11.19-1.1253-11.19-15.629v-44.761c0-13.441 1.1253-14.566 11.19-15.629 0-0.0625 1.1253-4.5011 1.1253-4.5011z"/><path class="st1" d="m591.4 287.39h-29.07v4.5011h4.5011c2.2506 0 3.3758 1.1253 4.5011 1.1253 0 1.1253 1.1253 1.1253 1.1253 2.2506s0 3.3758-1.1253 5.5639c0 1.1253-6.6892 29.07-12.316 46.949-1.1253-2.2506-22.381-59.265-22.381-59.265h-5.5639s-19.005 59.265-19.005 60.39c-1.1253-2.2506-14.566-49.2-14.566-49.2 0-2.2506-1.1253-3.3758-1.1253-4.5011v-2.2506c1.1253-1.1253 2.2506-1.1253 4.5011-1.1253h4.5011v-3.3758h-34.759v4.5011c6.6892 1.1253 8.9397 1.1253 12.316 12.316l21.255 67.079h5.5639s19.005-58.14 20.13-59.265c1.1253 2.2506 21.255 59.265 21.255 59.265h5.5639c11.19-39.135 21.255-65.954 21.255-67.079 4.5011-11.19 5.5639-12.316 13.441-12.316v-5.5639z"/><path class="st1" d="m613.78 307.52s8.9397 26.819 10.065 26.819h-19.005c-1.1253 0 8.9397-26.819 8.9397-26.819zm15.629 2.2506-8.9397-23.506-5.5639 1.1253-25.694 65.954c-4.5011 11.19-5.5639 12.316-13.441 12.316v4.5011h29.07v-4.5011h-3.3758c-2.2506 0-4.5011-1.1253-4.5011-2.2506v-2.2506c0-1.1253 0-2.2506 1.1253-4.5011l1.1253-2.2506c1.1253-4.5011 3.3758-11.19 4.5011-13.441h23.506c2.2506 6.6892 5.5639 14.566 6.6892 17.879 0 1.1253 1.1253 2.2506 1.1253 3.3758v1.1253c0 1.1253-1.1253 1.1253-3.3758 1.1253l-3.3758 1.1253v3.3758h33.571v-4.5011c-6.6892-1.1253-8.9397-1.1253-13.441-12.316z"/><path class="st1" d="m688.68 298.59c0-3.3758 0-5.5639 1.1253-5.5639h5.5639c3.3758 0 15.629 1.1253 15.629 15.629 0 10.065-6.6892 15.629-17.879 15.629h-4.5011c0.0625 0 0.0625-25.694 0.0625-25.694zm-23.443-11.19v4.5011c8.9397 1.1253 10.065 1.1253 10.065 15.629v44.761c0 13.441-1.1253 14.566-11.19 15.629v4.5011h31.32c10.065 0 19.005-2.2506 24.631-5.5639 7.8144-4.5011 11.19-11.19 11.19-19.005 0-11.19-7.8145-19.005-22.381-21.255 6.6892-1.1253 17.879-6.6892 17.879-17.879 0-6.6892-2.2506-11.19-6.6892-14.566-4.5011-3.3758-10.065-4.5011-20.13-4.5011h-34.696zm27.944 40.26c14.566 0 22.381 6.6892 22.381 19.005 0 12.316-8.9397 17.879-16.754 17.879-3.3758 0-5.5639 0-6.6892-1.1253-2.2506-2.2506-2.2506-5.5639-2.2506-12.316v-22.381c-0.0625-1.0628 3.3133-1.0628 3.3133-1.0628z"/></g></svg>
